<?xml version="1.0" standalone="no"?>
<!DOCTYPE svg PUBLIC "-//W3C//DTD SVG 20010904//EN"
 "http://www.w3.org/TR/2001/REC-SVG-20010904/DTD/svg10.dtd">
<svg version="1.0" xmlns="http://www.w3.org/2000/svg"
 width="500.000000pt" height="500.000000pt" viewBox="0 0 500.000000 500.000000"
 preserveAspectRatio="xMidYMid meet">
<metadata>
Created by potrace 1.16, written by Peter Selinger 2001-2019
</metadata>
<g transform="translate(0.000000,500.000000) scale(0.100000,-0.100000)"
fill="#000000" stroke="none">
<path d="M2315 4744 c-16 -2 -82 -11 -145 -20 -228 -31 -434 -96 -665 -209
-446 -218 -806 -580 -1026 -1030 -396 -812 -270 -1770 324 -2461 199 -231 422
-401 712 -544 213 -105 383 -159 631 -202 173 -29 510 -32 684 -4 330 52 637
171 915 354 561 370 929 983 994 1656 116 1184 -722 2258 -1904 2441 -104 16
-450 29 -520 19z m1655 -1159 c0 -216 -2 -265 -14 -265 -9 0 -15 20 -19 69 -7
87 -27 135 -79 188 -68 69 -120 86 -280 91 l-138 4 0 -446 0 -446 273 0 c264
0 273 1 322 24 54 25 110 81 130 130 7 17 16 55 20 84 4 29 11 52 17 50 6 -2
9 -109 9 -283 -1 -154 -1 -313 -1 -352 0 -40 -4 -73 -9 -73 -4 0 -13 30 -19
66 -12 75 -43 129 -97 169 -66 51 -89 54 -377 55 l-268 0 0 -430 0 -430 343 0
c372 0 416 5 525 57 37 18 85 56 138 108 68 68 89 98 127 176 24 52 50 106 56
122 6 15 17 27 25 27 15 0 15 -2 -77 -400 l-52 -225 -823 0 c-452 0 -822 -3
-822 -6 0 -14 120 -136 203 -205 205 -172 387 -255 615 -280 105 -11 77 -40
-100 -103 -384 -135 -772 11 -1171 440 -104 113 -947 1145 -947 1160 0 5 28
46 63 92 35 45 201 265 370 489 264 351 307 412 307 442 0 43 -37 76 -86 76
-26 0 -34 4 -34 18 0 16 21 17 308 17 169 0 546 3 837 6 483 6 537 8 610 27
44 11 88 20 98 21 16 1 17 -18 17 -264z m-2372 206 c6 -1 12 -8 12 -16 0 -11
-11 -15 -42 -15 -59 -1 -120 -30 -154 -76 l-29 -37 -3 -901 c-2 -611 0 -913 8
-937 19 -68 110 -129 193 -129 17 0 27 -5 27 -15 0 -13 -58 -15 -465 -15 -407
0 -465 2 -465 15 0 11 11 15 38 15 89 1 173 73 192 165 7 34 10 334 8 910 l-3
860 -23 43 c-32 59 -100 102 -164 102 -33 0 -48 4 -48 13 0 8 2 16 4 18 3 3
850 3 914 0z"/>
<path d="M2727 3759 c-78 -9 -175 -50 -229 -98 -50 -43 -633 -741 -632 -755 1
-7 191 -248 424 -536 560 -696 538 -670 554 -670 30 0 82 48 109 100 l28 55
-3 890 c-3 875 -3 891 -23 925 -24 41 -108 101 -139 99 -11 -1 -52 -5 -89 -10z"/>
</g>
</svg>
